# xmcd CD database file
#
# Track frame offsets:
#	150
#	13992
#	27547
#	40717
#	52347
#	63967
#	76840
#	89345
#	104350
#	118407
#	132665
#	147022
#	161115
#	174565
#	189515
#	201790
#	213857
#	228072
#	240195
#	251540
#	263412
#	276630
#	287937
#	298855
#
# Disc length: 4130 seconds
#
# Revision: 0
# Processed by: cddbd v1.4PL0 Copyright (c) Steve Scherf et al.
# Submitted via: CDex 1.50beta8
#
DISCID=6a102018
DTITLE=Sidney Bechet - l'Album Souvenir
DYEAR=1989
DGENRE=Jazz
TTITLE0=I Got Rhythm
TTITLE1=September Song
TTITLE2=Who?
TTITLE3=Casbah (Song Of The Medina)
TTITLE4=Maryland, My Maryland
TTITLE5=Carless Love
TTITLE6=Egyptian Fantasy
TTITLE7=A Love Me With A Feeling
TTITLE8=Waste No Tears
TTITLE9=Box Car Shorty
TTITLE10=The Broken Windmill
TTITLE11=Without A Home
TTITLE12=Honeysuckle Rose
TTITLE13=High Society
TTITLE14=On The Sunny Side Of The Street
TTITLE15=I Can't Belive That You're In Love With Me
TTITLE16=Wrap Your Troubles In Dreams
TTITLE17=It Had To Be You
TTITLE18=Baby Won't You Plese Come Home
TTITLE19=Please Don't Talk About Me When I'm Gone
TTITLE20=Ooh! Boogie!
TTITLE21=After You've Gone
TTITLE22=I'm Goin' Way Down Home
TTITLE23=Margie
EXTD=YEAR: 1989
EXTT0=
EXTT1=
EXTT2=
EXTT3=
EXTT4=
EXTT5=
EXTT6=
EXTT7=
EXTT8=
EXTT9=
EXTT10=
EXTT11=
EXTT12=
EXTT13=
EXTT14=
EXTT15=
EXTT16=
EXTT17=
EXTT18=
EXTT19=
EXTT20=
EXTT21=
EXTT22=
EXTT23=
PLAYORDER=
